<?xml version="1.0" encoding="UTF-8" standalone="no" ?><!DOCTYPE svg PUBLIC "-//W3C//DTD SVG 1.1//EN" "http://www.w3.org/Graphics/SVG/1.1/DTD/svg11.dtd">
<svg xmlns="http://www.w3.org/2000/svg" xmlns:xlink="http://www.w3.org/1999/xlink" version="1.1" width="800" height="500" xml:space="preserve"><desc>Created with Fabric.js 1.5.0</desc><defs></defs><g style="stroke: none; stroke-width: 1; stroke-dasharray: ; stroke-linecap: butt; stroke-linejoin: miter; stroke-miterlimit: 10; fill: none; fill-rule: nonzero; opacity: 1;" transform="translate(302.1 99.97999999999999) scale(8.66 8.66)" >
<polygon points="14.7,6.1 4.75,10.7 4.75,21.1 1.15,21.1 0,21.1 1.15,20.1 1.15,7.85 1.15,7.4 14.65,1.15 14.7,1.15 " style="stroke: none; stroke-width: 1; stroke-dasharray: ; stroke-linecap: butt; stroke-linejoin: miter; stroke-miterlimit: 10; fill: #383838; fill-rule: evenodd; opacity: 1;" transform=" "/>
<polygon points="22,0 26.2,0.6 26.2,5.8 22,3.75 " style="stroke: none; stroke-width: 1; stroke-dasharray: ; stroke-linecap: butt; stroke-linejoin: miter; stroke-miterlimit: 10; fill: #004201; fill-rule: evenodd; opacity: 1;" transform=" "/>
<polygon points="28.25,7.8 28.25,20.05 29.85,21.05 28.25,21.05 24.65,21.05 24.65,10.65 15.4,6 15.4,1.1 15.5,1.1 28.25,7.4 " style="stroke: none; stroke-width: 1; stroke-dasharray: ; stroke-linecap: butt; stroke-linejoin: miter; stroke-miterlimit: 10; fill: #004201; fill-rule: evenodd; opacity: 1;" transform=" "/>
<path d="M 23.801 11.55 v 3.75 l -3.551 -0.4 V 9.75 L 23.801 11.55 z M 20.25 16.6 l 3.551 0.35 v 4.4 H 20.25 V 16.6 z M 18.851 16.45 L 15.4 16.1 v 5.25 h 3.45 V 16.45 z M 15.4 7.3 l 3.45 1.75 v 5.7 L 15.4 14.4 V 7.3 z" style="stroke: none; stroke-width: 1; stroke-dasharray: ; stroke-linecap: butt; stroke-linejoin: miter; stroke-miterlimit: 10; fill: #004201; fill-rule: evenodd; opacity: 1;" transform="" stroke-linecap="round" />
<path d="M 14.6 28.05 h -0.05 c -2.533 -1.366 -4.783 -3.149 -6.75 -5.351 c -0.267 -0.266 -0.517 -0.566 -0.75 -0.899 h 7.55 V 28.05 z" style="stroke: none; stroke-width: 1; stroke-dasharray: ; stroke-linecap: butt; stroke-linejoin: miter; stroke-miterlimit: 10; fill: #004201; fill-rule: evenodd; opacity: 1;" transform="" stroke-linecap="round" />
<path d="M 14.9 29.25 v 4.3 l -0.2 -0.101 c -1.967 -0.899 -3.85 -1.967 -5.65 -3.199 c -1.667 -1.334 -3.217 -2.801 -4.65 -4.4 c -0.8 -0.934 -1.433 -1.95 -1.9 -3.05 l -1.65 -0.95 h 1.3 h 3.9 c 0.233 0.467 0.533 0.9 0.9 1.3 c 1.167 1.3 2.4 2.5 3.7 3.601 C 11.983 27.684 13.4 28.516 14.9 29.25 z" style="stroke: none; stroke-width: 1; stroke-dasharray: ; stroke-linecap: butt; stroke-linejoin: miter; stroke-miterlimit: 10; fill: #004201; fill-rule: evenodd; opacity: 1;" transform="" stroke-linecap="round" />
<path d="M 27.649 21.85 h 2.05 L 27.3 22.8 c -0.467 1.1 -1.116 2.116 -1.95 3.05 c -1.434 1.6 -2.967 3.066 -4.6 4.4 c -1.634 1.266 -3.351 2.383 -5.15 3.35 v -4.35 c 1.233 -0.768 2.4 -1.601 3.5 -2.5 c 1.334 -1.101 2.566 -2.301 3.7 -3.601 c 0.366 -0.399 0.683 -0.833 0.95 -1.3 H 27.649 z" style="stroke: none; stroke-width: 1; stroke-dasharray: ; stroke-linecap: butt; stroke-linejoin: miter; stroke-miterlimit: 10; fill: #383838; fill-rule: evenodd; opacity: 1;" transform="" stroke-linecap="round" />
<polygon points="22,0 26.2,0.6 26.2,5.8 22,3.75 " style="stroke: none; stroke-width: 1; stroke-dasharray: ; stroke-linecap: butt; stroke-linejoin: miter; stroke-miterlimit: 10; fill: #004201; fill-rule: evenodd; opacity: 1;" transform=" "/>
</g>
	<g transform="translate(144.53 245.75)">
		<text font-family="Architects Daughter" font-size="39" font-weight="bold" style="stroke: none; stroke-width: 1; stroke-dasharray: ; stroke-linecap: butt; stroke-linejoin: miter; stroke-miterlimit: 10; fill: #6b6c6b; fill-rule: nonzero; opacity: 1;" ><tspan x="-144.5333" y="8.7594" fill="#6b6c6b">HostCorrector</tspan></text>
	</g>
	<g transform="translate(400 464.21)">
		<text font-family="Abril Fatface" font-size="56" font-weight="normal" style="stroke: none; stroke-width: 1; stroke-dasharray: ; stroke-linecap: butt; stroke-linejoin: miter; stroke-miterlimit: 10; fill: #4fab47; fill-rule: nonzero; opacity: 1;" ><tspan x="0" y="12.5776" fill="#4fab47"></tspan></text>
	</g>
</svg>